<svg width="64" height="64" viewBox="0 0 64 64" fill="none" xmlns="http://www.w3.org/2000/svg">
<path fill-rule="evenodd" clip-rule="evenodd" d="M40.1782 36.2218C40.5298 41.2082 42.0808 52.0586 42.0808 52.0586C41.6168 52.3805 41.0793 52.5804 40.5178 52.6399C39.6241 52.7225 38.741 52.239 38.741 52.239C38.741 52.239 35.7748 40.5198 35.5332 36.311C35.2176 30.7004 36.9955 21.9011 37.4271 20.2929C37.8587 18.6846 38.3964 16.8322 39.425 16.7842C40.8365 16.7108 40.6558 20.3736 40.6558 20.3736C40.6558 20.3736 39.7406 30.0591 40.1782 36.2218ZM23.7136 35.0705C22.6753 39.9597 19.6293 50.4887 19.6293 50.4887C20.0411 50.8696 20.5413 51.1419 21.0847 51.281C21.9601 51.4873 22.9 51.1313 22.9 51.1313C22.9 51.1313 27.4578 39.8957 28.2808 35.7613C29.38 30.2496 28.8584 21.3322 28.6548 19.6795C28.4512 18.0267 28.1746 16.1175 27.1646 15.9269C25.7771 15.6577 25.4463 19.31 25.4463 19.31C25.4463 19.31 25.0046 29.0287 23.7136 35.0705Z" fill="#3D0017"/>
<path d="M10.046 24.3208C10.046 24.3208 13.8453 22.743 16.6497 23.1112C19.454 23.4795 23.4181 24.4415 23.4181 24.4415C23.4181 24.4415 28.3302 24.1002 32.5133 24.3927C36.6964 24.6852 39.2518 26.1503 39.2518 26.1503C39.2518 26.1503 45.7621 25.058 48.651 25.4341C51.5399 25.8102 55.7564 27.4785 55.7564 27.4785C55.7564 27.4785 57.1654 36.1543 57.0698 37.5211C56.9743 38.8878 54.4003 54.2297 54.4003 54.2297C54.4003 54.2297 54.3035 54.6737 52.336 54.6212C50.3685 54.5687 45.7417 53.5391 44.2056 53.4317L30.7304 52.4894C30.7304 52.4894 19.3158 51.3489 17.8448 51.4162C16.3738 51.4836 12.9754 52.3621 11.1873 52.152C9.39906 51.9418 7.71325 51.1527 7.66559 51.0043C7.45426 50.3473 6.90882 36.0717 6.90882 36.0717L10.046 24.3208Z" fill="#00BF8F"/>
<path fill-rule="evenodd" clip-rule="evenodd" d="M33.5005 13.6502C37.0167 13.9729 38.8001 16.8217 38.9057 16.9953C38.1053 17.8001 38.2862 20.4845 38.2862 20.4845C38.2862 20.4845 39.3993 30.4047 39.0837 36.7431C38.8296 41.8709 37.4931 53.0436 37.4931 53.0436C37.9571 53.3605 38.4942 53.5538 39.0536 53.6053C39.9526 53.6682 40.8265 53.149 40.8265 53.149C40.8265 53.149 42.3887 41.1835 42.5461 36.8575C42.7559 31.0902 41.9838 21.9656 41.5181 20.3255C41.0559 18.6975 40.4831 16.8234 39.468 16.7711C39.2833 15.9389 38.1414 11.7714 33.7366 11.4633C28.7107 11.1119 27.2443 15.2503 27.0438 15.907C26.0789 15.9437 25.2846 17.6503 24.6241 19.1442C23.9348 20.7035 21.8983 29.6317 21.3035 35.3721C20.8573 39.6779 20.7263 51.5926 20.7263 51.5926C20.7263 51.5926 21.4934 52.2691 22.3905 52.3318C22.966 52.356 23.5375 52.2256 24.0457 51.9543C24.0457 51.9543 24.2899 40.8542 24.75 35.7408C25.3216 29.4203 27.8025 19.7514 27.8025 19.7514C27.8025 19.7514 28.2639 17.5537 27.8246 16.4813C28.2579 15.6874 29.8036 13.3138 33.5005 13.6502Z" fill="#90704A"/>
<path fill-rule="evenodd" clip-rule="evenodd" d="M58.418 40.0121C58.8895 33.2687 55.7566 27.4746 55.7566 27.4746C55.7566 27.4746 55.7075 34.2901 55.2906 40.3079C54.8663 46.3756 54.5218 54.2343 54.5218 54.2343C54.5218 54.2343 57.8507 48.1241 58.418 40.0121ZM5.66563 36.3658C6.13717 29.6225 10.046 24.3208 10.046 24.3208C10.046 24.3208 8.84636 31.3788 8.49043 37.4648C8.13449 43.5508 7.54452 50.9919 7.54452 50.9919C7.54452 50.9919 5.09824 44.4798 5.66563 36.3658Z" fill="#009972"/>
<path d="M14.46 18.6644L17.0439 19.1083L17.7482 21.7829L18.2576 19.0909L20.7952 18.4618L18.1747 17.9852L17.4742 15.4148L17.0303 18.0006L14.46 18.6644Z" fill="url(#paint0_linear_417_2295)"/>
<path d="M42.9792 20.0229L45.0074 20.3703L45.5612 22.4698L45.9607 20.3568L47.9521 19.8628L45.8951 19.4884L45.3451 17.4699L44.9977 19.5L42.9792 20.0229Z" fill="url(#paint1_linear_417_2295)"/>
<path d="M45.6713 15.025L49.6677 15.71L50.7561 19.8454L51.5434 15.683L55.4685 14.7104L51.416 13.9733L50.3335 10L49.6484 13.9964L45.6713 15.025Z" fill="url(#paint2_linear_417_2295)"/>
<mask id="path-8-outside-1_417_2295" maskUnits="userSpaceOnUse" x="24.5752" y="31.7768" width="14.1785" height="14.1785" fill="black">
<rect fill="white" x="24.5752" y="31.7768" width="14.1785" height="14.1785"/>
<path fill-rule="evenodd" clip-rule="evenodd" d="M32.9298 35.687C33.3633 35.0638 34.0915 34.8419 34.5498 35.1762C35.008 35.5105 35.0509 36.2861 34.5957 36.9058C34.1406 37.5255 33.4324 37.755 32.9717 37.4152C32.5109 37.0753 32.5059 36.3093 32.9459 35.6931L32.9298 35.687ZM31.3921 33.9828C31.9569 34.0351 32.3563 34.6832 32.2733 35.4389C32.1902 36.1946 31.6636 36.7597 31.0948 36.7058C30.526 36.6519 30.1305 36.0054 30.2136 35.2497C30.2967 34.494 30.8233 33.9289 31.3921 33.9828ZM29.0812 35.0426C28.4922 34.9811 27.9682 35.5518 27.8826 36.3019C27.7995 37.0576 28.2151 37.7118 28.7839 37.7657C29.3527 37.8196 29.8793 37.2545 29.9624 36.4988C30.0455 35.7431 29.6702 35.1041 29.0812 35.0426ZM31.8901 43.1513L31.8256 43.1269C31.4889 43.0157 31.2044 42.7854 31.0255 42.4793C30.8441 42.1832 30.5588 41.9654 30.2253 41.8685C29.912 41.7197 29.5546 41.6929 29.2226 41.7933C28.8631 41.912 28.4718 41.8877 28.1297 41.7255C26.8208 41.194 26.8847 40.477 27.1145 39.8689C27.4449 38.9946 27.9754 38.9775 28.4932 38.9608L28.5214 38.9598C28.8675 38.9782 29.2125 38.9055 29.5217 38.7488C29.8383 38.5463 30.1095 38.2805 30.3185 37.9682L30.3195 37.9668C30.6842 37.4885 31.0323 37.032 31.8974 37.359L31.9779 37.3894C32.8431 37.7164 32.8022 38.289 32.7594 38.8889L32.7592 38.8907C32.7094 39.2631 32.737 39.6418 32.8405 40.0031C32.9688 40.3251 33.1794 40.6079 33.4512 40.8231C33.8348 41.1844 34.2254 41.5759 33.8996 42.4378C33.6456 43.0369 33.2072 43.6123 31.8901 43.1513ZM33.9981 38.024C33.5429 38.6437 33.5873 39.4153 34.044 39.7537C34.5007 40.092 35.2305 39.8661 35.664 39.2428C36.1 38.6251 36.0587 37.8454 35.6181 37.5132C35.1775 37.1809 34.4532 37.4043 33.9981 38.024Z"/>
</mask>
<path fill-rule="evenodd" clip-rule="evenodd" d="M32.9298 35.687C33.3633 35.0638 34.0915 34.8419 34.5498 35.1762C35.008 35.5105 35.0509 36.2861 34.5957 36.9058C34.1406 37.5255 33.4324 37.755 32.9717 37.4152C32.5109 37.0753 32.5059 36.3093 32.9459 35.6931L32.9298 35.687ZM31.3921 33.9828C31.9569 34.0351 32.3563 34.6832 32.2733 35.4389C32.1902 36.1946 31.6636 36.7597 31.0948 36.7058C30.526 36.6519 30.1305 36.0054 30.2136 35.2497C30.2967 34.494 30.8233 33.9289 31.3921 33.9828ZM29.0812 35.0426C28.4922 34.9811 27.9682 35.5518 27.8826 36.3019C27.7995 37.0576 28.2151 37.7118 28.7839 37.7657C29.3527 37.8196 29.8793 37.2545 29.9624 36.4988C30.0455 35.7431 29.6702 35.1041 29.0812 35.0426ZM31.8901 43.1513L31.8256 43.1269C31.4889 43.0157 31.2044 42.7854 31.0255 42.4793C30.8441 42.1832 30.5588 41.9654 30.2253 41.8685C29.912 41.7197 29.5546 41.6929 29.2226 41.7933C28.8631 41.912 28.4718 41.8877 28.1297 41.7255C26.8208 41.194 26.8847 40.477 27.1145 39.8689C27.4449 38.9946 27.9754 38.9775 28.4932 38.9608L28.5214 38.9598C28.8675 38.9782 29.2125 38.9055 29.5217 38.7488C29.8383 38.5463 30.1095 38.2805 30.3185 37.9682L30.3195 37.9668C30.6842 37.4885 31.0323 37.032 31.8974 37.359L31.9779 37.3894C32.8431 37.7164 32.8022 38.289 32.7594 38.8889L32.7592 38.8907C32.7094 39.2631 32.737 39.6418 32.8405 40.0031C32.9688 40.3251 33.1794 40.6079 33.4512 40.8231C33.8348 41.1844 34.2254 41.5759 33.8996 42.4378C33.6456 43.0369 33.2072 43.6123 31.8901 43.1513ZM33.9981 38.024C33.5429 38.6437 33.5873 39.4153 34.044 39.7537C34.5007 40.092 35.2305 39.8661 35.664 39.2428C36.1 38.6251 36.0587 37.8454 35.6181 37.5132C35.1775 37.1809 34.4532 37.4043 33.9981 38.024Z" fill="#7A5433"/>
<path d="M32.9298 35.687L32.273 35.2302L31.6871 36.0726L32.6469 36.4354L32.9298 35.687ZM34.5957 36.9058L33.9509 36.4323L33.9509 36.4323L34.5957 36.9058ZM32.9459 35.6931L33.5969 36.158L34.2009 35.3122L33.2287 34.9448L32.9459 35.6931ZM32.2733 35.4389L31.4781 35.3515L31.4781 35.3515L32.2733 35.4389ZM31.3921 33.9828L31.3166 34.7792L31.3182 34.7793L31.3921 33.9828ZM31.0948 36.7058L31.1702 35.9094L31.1702 35.9094L31.0948 36.7058ZM30.2136 35.2497L29.4184 35.1622L29.4184 35.1622L30.2136 35.2497ZM27.8826 36.3019L27.0877 36.2112L27.0874 36.2145L27.8826 36.3019ZM29.0812 35.0426L28.9981 35.8383L28.9981 35.8383L29.0812 35.0426ZM28.7839 37.7657L28.8594 36.9692L28.8594 36.9692L28.7839 37.7657ZM29.9624 36.4988L29.1672 36.4114L29.1672 36.4114L29.9624 36.4988ZM31.8256 43.1269L32.1084 42.3786L32.0926 42.3726L32.0765 42.3673L31.8256 43.1269ZM31.8901 43.1513L31.6072 43.8996L31.6165 43.9031L31.6258 43.9064L31.8901 43.1513ZM31.0255 42.4793L31.7162 42.0756L31.712 42.0685L31.7077 42.0614L31.0255 42.4793ZM30.2253 41.8685L29.882 42.5911L29.9402 42.6187L30.002 42.6367L30.2253 41.8685ZM29.2226 41.7933L28.9909 41.0276L28.9813 41.0305L28.9718 41.0337L29.2226 41.7933ZM28.1297 41.7255L28.4726 41.0027L28.4519 40.9929L28.4307 40.9843L28.1297 41.7255ZM27.1145 39.8689L27.8628 40.1517L27.1145 39.8689ZM28.4932 38.9608L28.519 39.7603L28.5192 39.7603L28.4932 38.9608ZM28.5214 38.9598L28.5638 38.161L28.5296 38.1592L28.4954 38.1603L28.5214 38.9598ZM29.5217 38.7488L29.8833 39.4624L29.9191 39.4443L29.9528 39.4227L29.5217 38.7488ZM30.3185 37.9682L29.6823 37.4831L29.6673 37.5028L29.6535 37.5234L30.3185 37.9682ZM30.3195 37.9668L30.9557 38.4519L30.9557 38.4519L30.3195 37.9668ZM31.8974 37.359L32.1802 36.6106L32.1802 36.6106L31.8974 37.359ZM31.9779 37.3894L31.6951 38.1377L31.6951 38.1377L31.9779 37.3894ZM32.7594 38.8889L33.5573 38.9462L33.5573 38.9459L32.7594 38.8889ZM32.7592 38.8907L33.5522 38.9968L33.5554 38.9724L33.5572 38.9479L32.7592 38.8907ZM32.8405 40.0031L32.0715 40.2234L32.0825 40.2619L32.0973 40.2991L32.8405 40.0031ZM33.4512 40.8231L33.9998 40.2407L33.9747 40.2171L33.9478 40.1958L33.4512 40.8231ZM33.8996 42.4378L34.6361 42.7502L34.6423 42.7355L34.648 42.7207L33.8996 42.4378ZM34.044 39.7537L34.5202 39.1108L34.5202 39.1108L34.044 39.7537ZM33.9981 38.024L33.3533 37.5504L33.3533 37.5504L33.9981 38.024ZM35.664 39.2428L35.0104 38.7815L35.0073 38.786L35.664 39.2428ZM35.6181 37.5132L35.1364 38.1519L35.1364 38.1519L35.6181 37.5132ZM35.0213 34.5299C34.5448 34.1823 33.9723 34.159 33.4922 34.3088C33.0131 34.4583 32.5813 34.7869 32.273 35.2302L33.5865 36.1438C33.7117 35.9639 33.8608 35.8699 33.9688 35.8362C34.0758 35.8028 34.0965 35.8358 34.0783 35.8225L35.0213 34.5299ZM35.2405 37.3794C35.8462 36.5547 35.9726 35.2239 35.0213 34.5299L34.0783 35.8225C34.0783 35.8225 34.0784 35.8226 34.0787 35.8229C34.079 35.8231 34.0797 35.8238 34.0807 35.825C34.0826 35.8274 34.0866 35.8329 34.0914 35.843C34.1012 35.8637 34.1136 35.9027 34.1158 35.9623C34.1201 36.0837 34.0792 36.2577 33.9509 36.4323L35.2405 37.3794ZM32.4968 38.059C32.9746 38.4114 33.5453 38.4357 34.0274 38.283C34.5034 38.1322 34.9278 37.8052 35.2405 37.3794L33.9509 36.4323C33.8085 36.6262 33.6512 36.7238 33.5442 36.7577C33.4927 36.774 33.462 36.7731 33.4511 36.7718C33.4459 36.7712 33.4443 36.7704 33.4452 36.7707C33.4462 36.7711 33.447 36.7716 33.4466 36.7713L32.4968 38.059ZM32.2948 35.2282C31.9865 35.66 31.8149 36.1694 31.8211 36.6677C31.8273 37.1674 32.0198 37.7071 32.4968 38.059L33.4466 36.7713C33.4465 36.7713 33.4466 36.7714 33.4467 36.7715C33.4468 36.7715 33.4469 36.7716 33.447 36.7717C33.4473 36.772 33.4472 36.772 33.447 36.7717C33.4465 36.7711 33.444 36.7678 33.4404 36.76C33.4331 36.7438 33.4217 36.7078 33.4209 36.6478C33.4194 36.5242 33.4652 36.3424 33.5969 36.158L32.2948 35.2282ZM32.6469 36.4354L32.6631 36.4415L33.2287 34.9448L33.2126 34.9387L32.6469 36.4354ZM33.0685 35.5263C33.1274 34.9906 33.0197 34.4595 32.759 34.0312C32.4978 33.6019 32.0533 33.2406 31.4659 33.1862L31.3182 34.7793C31.2957 34.7773 31.3333 34.7662 31.3922 34.863C31.4517 34.9607 31.5022 35.1316 31.4781 35.3515L33.0685 35.5263ZM31.0194 37.5022C31.6066 37.5579 32.1112 37.2869 32.4518 36.921C32.7925 36.5549 33.0098 36.0596 33.0685 35.5263L31.4781 35.3515C31.4536 35.5739 31.3661 35.739 31.2806 35.8309C31.1949 35.923 31.1518 35.9076 31.1702 35.9094L31.0194 37.5022ZM29.4184 35.1622C29.3597 35.6964 29.4654 36.2271 29.7259 36.6561C29.9876 37.0871 30.4323 37.4466 31.0194 37.5022L31.1702 35.9094C31.1701 35.9094 31.1704 35.9094 31.1701 35.9093C31.1697 35.9092 31.1663 35.9079 31.1603 35.9037C31.1477 35.895 31.1221 35.8727 31.0936 35.8257C31.0349 35.7291 30.9845 35.5586 31.0088 35.3371L29.4184 35.1622ZM31.4675 33.1863C30.8803 33.1307 30.3756 33.4017 30.0351 33.7676C29.6944 34.1337 29.477 34.6289 29.4184 35.1622L31.0088 35.3371C31.0333 35.1147 31.1208 34.9496 31.2063 34.8577C31.292 34.7656 31.3351 34.7809 31.3166 34.7792L31.4675 33.1863ZM28.6774 36.3926C28.7027 36.1713 28.7902 36.007 28.8756 35.9163C28.917 35.8724 28.951 35.8525 28.97 35.8444C28.9867 35.8373 28.9941 35.8379 28.9981 35.8383L29.1643 34.247C28.57 34.1849 28.0582 34.4504 27.7106 34.8195C27.3654 35.1863 27.1481 35.6824 27.0877 36.2112L28.6774 36.3926ZM28.8594 36.9692C28.8594 36.9692 28.8594 36.9692 28.8594 36.9692C28.8594 36.9692 28.8594 36.9692 28.8594 36.9692C28.8594 36.9692 28.8595 36.9693 28.8595 36.9693C28.8595 36.9693 28.8596 36.9693 28.8596 36.9693C28.8596 36.9693 28.8596 36.9693 28.8596 36.9693C28.8596 36.9693 28.8596 36.9693 28.8596 36.9693C28.8596 36.9693 28.8596 36.9693 28.8596 36.9693C28.8596 36.9693 28.8596 36.9693 28.8596 36.9693C28.8595 36.9693 28.8595 36.9692 28.8594 36.9692C28.8592 36.9692 28.8589 36.9691 28.8584 36.9689C28.8568 36.9683 28.8519 36.9662 28.844 36.9608C28.8277 36.9496 28.799 36.9241 28.7682 36.8745C28.7051 36.7732 28.6544 36.6026 28.6778 36.3893L27.0874 36.2145C27.0278 36.7569 27.1432 37.2913 27.4094 37.7194C27.6751 38.1467 28.1226 38.5066 28.7085 38.5621L28.8594 36.9692ZM29.1672 36.4114C29.1427 36.6338 29.0552 36.7989 28.9697 36.8908C28.884 36.9829 28.8409 36.9675 28.8594 36.9692L28.7085 38.5621C29.2957 38.6177 29.8004 38.3468 30.1409 37.9809C30.4816 37.6148 30.699 37.1195 30.7576 36.5862L29.1672 36.4114ZM28.9981 35.8383C29.0016 35.8387 29.0374 35.8379 29.0877 35.9218C29.1425 36.0132 29.1924 36.1817 29.1672 36.4114L30.7576 36.5862C30.8648 35.6114 30.3876 34.3747 29.1643 34.247L28.9981 35.8383ZM31.5428 43.8753L31.6072 43.8996L32.1729 42.4029L32.1084 42.3786L31.5428 43.8753ZM30.3348 42.883C30.6121 43.3574 31.053 43.7142 31.5747 43.8866L32.0765 42.3673C31.9249 42.3172 31.7968 42.2135 31.7162 42.0756L30.3348 42.883ZM30.002 42.6367C30.1443 42.678 30.266 42.7709 30.3433 42.8972L31.7077 42.0614C31.4222 41.5955 30.9732 41.2528 30.4486 41.1003L30.002 42.6367ZM29.4543 42.559C29.5959 42.5162 29.7484 42.5276 29.882 42.5911L30.5686 41.1459C30.0757 40.9117 29.5132 40.8696 28.9909 41.0276L29.4543 42.559ZM27.7869 42.4483C28.3147 42.6987 28.9187 42.7362 29.4735 42.553L28.9718 41.0337C28.8076 41.0879 28.6288 41.0768 28.4726 41.0027L27.7869 42.4483ZM26.3662 39.586C26.2321 39.9407 26.0729 40.5032 26.2947 41.1033C26.5231 41.721 27.0683 42.1579 27.8287 42.4667L28.4307 40.9843C27.8823 40.7616 27.805 40.5743 27.7955 40.5485C27.7795 40.5053 27.767 40.4052 27.8628 40.1517L26.3662 39.586ZM28.4674 38.1612C28.2384 38.1686 27.8016 38.1713 27.3847 38.3733C26.9186 38.5992 26.5847 39.0078 26.3662 39.586L27.8628 40.1517C27.9747 39.8557 28.0713 39.8186 28.0825 39.8131C28.1429 39.7838 28.2302 39.7697 28.519 39.7603L28.4674 38.1612ZM28.4954 38.1603L28.4673 38.1612L28.5192 39.7603L28.5473 39.7594L28.4954 38.1603ZM29.1601 38.0351C28.9758 38.1285 28.7702 38.1719 28.5638 38.161L28.4789 39.7587C28.9649 39.7845 29.4492 39.6824 29.8833 39.4624L29.1601 38.0351ZM29.6535 37.5234C29.5059 37.744 29.3143 37.9318 29.0907 38.0748L29.9528 39.4227C30.3623 39.1608 30.7132 38.817 30.9834 38.413L29.6535 37.5234ZM29.6834 37.4817L29.6823 37.4831L30.9546 38.4533L30.9557 38.4519L29.6834 37.4817ZM32.1802 36.6106C31.5799 36.3838 31.024 36.3899 30.5339 36.6607C30.1185 36.8902 29.841 37.275 29.6834 37.4817L30.9557 38.4519C31.0515 38.3262 31.1182 38.2399 31.1846 38.1684C31.2478 38.1002 31.2869 38.0726 31.3078 38.0611C31.3211 38.0537 31.3324 38.0492 31.3586 38.0485C31.3917 38.0476 31.4711 38.0531 31.6146 38.1073L32.1802 36.6106ZM32.2608 36.6411L32.1802 36.6106L31.6146 38.1073L31.6951 38.1377L32.2608 36.6411ZM33.5573 38.9459C33.5758 38.6865 33.6222 38.2144 33.4625 37.7676C33.274 37.2403 32.8611 36.8679 32.2608 36.6411L31.6951 38.1377C31.8385 38.192 31.9018 38.2404 31.926 38.2629C31.9452 38.2808 31.9507 38.2916 31.9558 38.306C31.9638 38.3285 31.9749 38.375 31.9773 38.468C31.9798 38.5655 31.9727 38.6743 31.9614 38.832L33.5573 38.9459ZM33.5572 38.9479L33.5573 38.9462L31.9614 38.8317L31.9613 38.8334L33.5572 38.9479ZM33.6096 39.7827C33.5365 39.5275 33.5169 39.26 33.5522 38.9968L31.9663 38.7845C31.9018 39.2662 31.9376 39.7561 32.0715 40.2234L33.6096 39.7827ZM33.9478 40.1958C33.7857 40.0675 33.6602 39.899 33.5837 39.707L32.0973 40.2991C32.2775 40.7513 32.5731 41.1482 32.9547 41.4503L33.9478 40.1958ZM34.648 42.7207C34.8674 42.14 34.8788 41.6108 34.6795 41.1341C34.5 40.7047 34.1792 40.4097 33.9998 40.2407L32.9027 41.4054C33.1069 41.5977 33.1732 41.6791 33.2034 41.7513C33.2138 41.7763 33.2576 41.8738 33.1513 42.155L34.648 42.7207ZM31.6258 43.9064C32.3974 44.1764 33.0885 44.2041 33.6662 43.8999C34.2245 43.606 34.4898 43.0952 34.6361 42.7502L33.1631 42.1255C33.0554 42.3795 32.9746 42.4559 32.9208 42.4842C32.8866 42.5022 32.6998 42.5871 32.1543 42.3962L31.6258 43.9064ZM34.5202 39.1108C34.5202 39.1108 34.5129 39.106 34.5034 39.0859C34.4932 39.0642 34.4807 39.0248 34.4786 38.9655C34.4742 38.8451 34.5146 38.6722 34.6429 38.4976L33.3533 37.5504C32.7443 38.3796 32.6276 39.7 33.5678 40.3965L34.5202 39.1108ZM35.0073 38.786C34.8817 38.9666 34.7316 39.0615 34.6234 39.0955C34.5164 39.129 34.4991 39.0952 34.5202 39.1108L33.5678 40.3965C34.0456 40.7504 34.6216 40.7728 35.1021 40.6222C35.5813 40.4719 36.0129 40.1423 36.3208 39.6996L35.0073 38.786ZM35.1364 38.1519C35.1177 38.1378 35.1655 38.1615 35.1703 38.2987C35.1748 38.4299 35.1323 38.6088 35.0104 38.7815L36.3176 39.7041C36.6317 39.2591 36.7866 38.7393 36.7693 38.2431C36.7523 37.753 36.5591 37.2208 36.0997 36.8744L35.1364 38.1519ZM34.6429 38.4976C34.7815 38.3088 34.9406 38.2102 35.0527 38.175C35.1648 38.1399 35.1714 38.1783 35.1364 38.1519L36.0997 36.8744C35.6241 36.5158 35.0483 36.4998 34.5744 36.6482C34.1005 36.7966 33.6698 37.1195 33.3533 37.5504L34.6429 38.4976Z" fill="#EDEDED" mask="url(#path-8-outside-1_417_2295)"/>
<defs>
<linearGradient id="paint0_linear_417_2295" x1="14.5233" y1="15.5676" x2="21.647" y2="16.7806" gradientUnits="userSpaceOnUse">
<stop stop-color="#FAAB43"/>
<stop offset="1" stop-color="#FF5867"/>
</linearGradient>
<linearGradient id="paint1_linear_417_2295" x1="43.029" y1="17.5899" x2="48.6208" y2="18.5418" gradientUnits="userSpaceOnUse">
<stop stop-color="#FAAB43"/>
<stop offset="1" stop-color="#FF5867"/>
</linearGradient>
<linearGradient id="paint2_linear_417_2295" x1="45.7692" y1="10.2363" x2="56.7855" y2="12.1126" gradientUnits="userSpaceOnUse">
<stop stop-color="#FAAB43"/>
<stop offset="1" stop-color="#FF5867"/>
</linearGradient>
</defs>
</svg>